<svg width="60" height="60" viewBox="0 0 60 60" fill="none" xmlns="http://www.w3.org/2000/svg">
<g filter="url(#filter0_g_1_375)">
<path fill-rule="evenodd" clip-rule="evenodd" d="M30 50C41.0457 50 50 41.0457 50 30C50 18.9543 41.0457 10 30 10C18.9543 10 10 18.9543 10 30C10 41.0457 18.9543 50 30 50Z" fill="white"/>
</g>
<path d="M37.317 25.1597C36.7365 25.4143 36.118 25.5831 35.4731 25.665C36.1365 25.2689 36.6429 24.6465 36.8809 23.8963C36.2624 24.265 35.5795 24.5255 34.8517 24.6709C34.2643 24.0455 33.4273 23.6582 32.5141 23.6582C30.7424 23.6582 29.3161 25.0963 29.3161 26.8592C29.3161 27.1128 29.3375 27.3567 29.3902 27.5889C26.7297 27.4592 24.3756 26.1841 22.7941 24.2416C22.518 24.7206 22.3561 25.2689 22.3561 25.8592C22.3561 26.9675 22.9268 27.9499 23.7775 28.5187C23.2634 28.5089 22.759 28.3597 22.3317 28.1245C22.3317 28.1343 22.3317 28.147 22.3317 28.1597C22.3317 29.7148 23.4409 31.0065 24.8956 31.3041C24.6351 31.3753 24.3512 31.4094 24.0565 31.4094C23.8517 31.4094 23.6448 31.3977 23.4507 31.3548C23.8653 32.6221 25.0419 33.5538 26.4409 33.5841C25.3522 34.4358 23.9697 34.9489 22.4731 34.9489C22.2107 34.9489 21.959 34.9372 21.7073 34.905C23.1248 35.8192 24.8048 36.3411 26.6165 36.3411C32.5053 36.3411 35.7248 31.4631 35.7248 27.2348C35.7248 27.0933 35.72 26.9567 35.7131 26.8211C36.3483 26.3704 36.8819 25.8075 37.317 25.1597Z" fill="#444444"/>
<defs>
<filter id="filter0_g_1_375" x="0" y="0" width="60" height="60" filterUnits="userSpaceOnUse" color-interpolation-filters="sRGB">
<feFlood flood-opacity="0" result="BackgroundImageFix"/>
<feBlend mode="normal" in="SourceGraphic" in2="BackgroundImageFix" result="shape"/>
<feTurbulence type="fractalNoise" baseFrequency="2 2" numOctaves="3" seed="4144" />
<feDisplacementMap in="shape" scale="20" xChannelSelector="R" yChannelSelector="G" result="displacedImage" width="100%" height="100%" />
<feMerge result="effect1_texture_1_375">
<feMergeNode in="displacedImage"/>
</feMerge>
</filter>
</defs>
</svg>
